<svg width="31" height="30" viewBox="0 0 31 30" fill="none" xmlns="http://www.w3.org/2000/svg">
<path d="M12.5772 4.57506L3.82716 22.0751C3.48342 22.7657 3.36105 23.5455 3.47673 24.3083C3.5924 25.071 3.9405 25.7795 4.47356 26.3371C5.00661 26.8948 5.69869 27.2745 6.45543 27.4244C7.21216 27.5744 7.99673 27.4873 8.70216 27.1751L15.4147 24.1751C15.577 24.107 15.7512 24.0719 15.9272 24.0719C16.1031 24.0719 16.2774 24.107 16.4397 24.1751L23.1522 27.1751C23.7231 27.4292 24.3484 27.5366 24.9714 27.4876C25.5943 27.4386 26.1952 27.2346 26.7193 26.8943C27.2434 26.554 27.6742 26.0881 27.9724 25.539C28.2707 24.9899 28.427 24.375 28.4272 23.7501C28.4213 23.1648 28.2847 22.5882 28.0272 22.0626L19.2772 4.56256C18.9649 3.94181 18.4863 3.42003 17.8948 3.05544C17.3032 2.69085 16.622 2.49779 15.9272 2.49779C15.2323 2.49779 14.5511 2.69085 13.9596 3.05544C13.368 3.42003 12.8894 3.94181 12.5772 4.56256V4.57506ZM17.0397 5.68756L25.7897 23.1876C25.9 23.4174 25.9374 23.6754 25.897 23.9271C25.8565 24.1788 25.74 24.412 25.5632 24.5957C25.3864 24.7793 25.1577 24.9045 24.9077 24.9544C24.6577 25.0043 24.3985 24.9766 24.1647 24.8751L17.4522 21.8876C17.3625 21.8489 17.2707 21.8155 17.1772 21.7876V13.1751C17.1772 12.8435 17.0455 12.5256 16.811 12.2912C16.5766 12.0568 16.2587 11.9251 15.9272 11.9251C15.5956 11.9251 15.2777 12.0568 15.0433 12.2912C14.8089 12.5256 14.6772 12.8435 14.6772 13.1751L14.6772 21.7876C14.5836 21.8155 14.4918 21.8489 14.4022 21.8876L7.68966 24.8751C7.45587 24.9766 7.1966 25.0043 6.94662 24.9544C6.69665 24.9045 6.46792 24.7793 6.2911 24.5957C6.11428 24.412 5.99782 24.1788 5.95735 23.9271C5.91688 23.6754 5.95432 23.4174 6.06466 23.1876L14.8147 5.68756C14.9196 5.4828 15.0789 5.31097 15.2752 5.19098C15.4715 5.071 15.6971 5.00751 15.9272 5.00751C16.1572 5.00751 16.3828 5.071 16.5791 5.19098C16.7754 5.31097 16.9348 5.4828 17.0397 5.68756Z" fill="#8640DF"/>
</svg>
